# xmcd CD database file
#
# Track frame offsets:
#	150
#	18970
#	45835
#	66876
#	85009
#	101132
#	119909
#	140062
#	151682
#	178997
#	194214
#	205397
#	226644
#
# Disc length: 3275 seconds
#
# Revision: 0
# Processed by: cddbd v1.4PL0 Copyright (c) Steve Scherf et al.
# Submitted via: CDex 1.50beta8
#
DISCID=b50cc90d
DTITLE=colors of nights - colors of nights
DYEAR=1900
DGENRE=New Age
TTITLE0=Looking back-Gerry Schubert
TTITLE1=Leaving-Acadia
TTITLE2=Going home-"Reflections on a Decade"
TTITLE3=The only one-Reflections on a Decade
TTITLE4=Sunday sailing-"Liquid Amber"
TTITLE5=Dream of the princess-Gerry Schubert
TTITLE6=A wedding vow-"Change of Pace"
TTITLE7=Celestial dreams-"Liquid Amber"
TTITLE8=Voices in the wind-Voices in the wind
TTITLE9=Song for bria-"Change of Pace"
TTITLE10=The common bond-"Reflections on a Decade"
TTITLE11=Highway to the sun-"Voices in the Wind"
TTITLE12=Millwood junction-"Voices in the Wind"
EXTD=
EXTT0=
EXTT1=
EXTT2=
EXTT3=
EXTT4=
EXTT5=
EXTT6=
EXTT7=
EXTT8=
EXTT9=
EXTT10=
EXTT11=
EXTT12=
PLAYORDER=
